<svg xmlns="http://www.w3.org/2000/svg" viewBox="0 0 128 128" width="128" height="128" role="img"><defs><linearGradient id="sconnectpbpl" x1="0" y1="0" x2="1" y2="1"><stop offset="0" stop-color="#08383a"/><stop offset="0.55" stop-color="#04160f"/><stop offset="1" stop-color="#010806"/></linearGradient><linearGradient id="sconnectpbf" x1="0" y1="0" x2="0.35" y2="1"><stop offset="0" stop-color="#6ffbe4"/><stop offset="1" stop-color="#3df0d0"/></linearGradient><linearGradient id="sconnectpbsp" x1="0" y1="0" x2="0.4" y2="1"><stop offset="0" stop-color="#fff" stop-opacity="0.26"/><stop offset="0.5" stop-color="#fff" stop-opacity="0.03"/><stop offset="1" stop-color="#fff" stop-opacity="0"/></linearGradient><radialGradient id="sconnectpbgl" cx="0.22" cy="0.16" r="0.75"><stop offset="0" stop-color="#3df0d0" stop-opacity="0.22"/><stop offset="1" stop-color="#3df0d0" stop-opacity="0"/></radialGradient><filter id="sconnectpbsh" x="-50%" y="-50%" width="200%" height="200%"><feDropShadow dx="0" dy="5" stdDeviation="6" flood-color="#3df0d0" flood-opacity="0.45"/></filter><mask id="sconnectpbm" maskUnits="userSpaceOnUse" x="0" y="0" width="128" height="128"><rect width="128" height="128" fill="#fff"/><g fill="#000"><path d="M40 58 51 68 40 78" fill="none" stroke="#000" stroke-width="7" stroke-linecap="round" stroke-linejoin="round"/><path d="M58 58 69 68 58 78" fill="none" stroke="#000" stroke-width="7" stroke-linecap="round" stroke-linejoin="round"/><rect x="76" y="72" width="14" height="7" rx="3.5"/></g></mask><clipPath id="sconnectpbcp"><rect x="30" y="46" width="70" height="46" rx="11"/></clipPath></defs><rect width="128" height="128" rx="30" fill="url(#sconnectpbpl)"/><rect width="128" height="128" rx="30" fill="url(#sconnectpbgl)"/><rect x="0.9" y="0.9" width="126.2" height="126.2" rx="29.1" fill="none" stroke="#fff" stroke-opacity="0.10" stroke-width="1.8"/><rect class="t3270-plane t3270-plane-2" x="24" y="28" width="54" height="46" rx="9" fill="#3df0d0" fill-opacity="0.20"/><rect class="t3270-plane t3270-plane-1" x="27" y="37" width="62" height="46" rx="10" fill="#3df0d0" fill-opacity="0.38"/><g filter="url(#sconnectpbsh)"><rect x="30" y="46" width="70" height="46" rx="11" fill="url(#sconnectpbf)" mask="url(#sconnectpbm)"/></g><g class="t3270-spec" clip-path="url(#sconnectpbcp)"><path d="M30 46h70v20L30 84Z" fill="url(#sconnectpbsp)"/></g></svg>